<?xml version="1.0" standalone="no"?>
<!DOCTYPE svg PUBLIC "-//W3C//DTD SVG 20010904//EN"
 "http://www.w3.org/TR/2001/REC-SVG-20010904/DTD/svg10.dtd">
<svg version="1.0" xmlns="http://www.w3.org/2000/svg"
 width="512.000000pt" height="512.000000pt" viewBox="0 0 512.000000 512.000000"
 preserveAspectRatio="xMidYMid meet">
<metadata>
Created by potrace 1.11, written by Peter Selinger 2001-2013
</metadata>
<g transform="translate(0.000000,512.000000) scale(0.100000,-0.100000)"
fill="#000000" stroke="none">
<path d="M2544 5007 c-52 -61 -60 -73 -81 -113 -42 -79 -56 -119 -60 -176 -6
-67 9 -98 63 -130 47 -28 47 -65 -1 -95 l-34 -23 0 -177 c0 -98 0 -196 0 -219
l-1 -40 -147 -1 c-122 0 -170 -5 -273 -27 -185 -40 -413 -106 -606 -175 -94
-34 -174 -61 -177 -61 -4 0 -7 71 -7 158 l0 158 -36 21 -36 20 46 32 c34 24
46 39 47 59 1 15 2 50 3 77 3 69 -19 137 -70 219 -24 39 -44 76 -44 83 0 29
-19 7 -77 -89 -118 -199 -137 -268 -87 -327 14 -17 37 -36 52 -44 36 -17 31
-50 -14 -89 l-34 -30 0 -189 0 -188 -133 -100 c-158 -119 -229 -184 -295 -272
-86 -116 -129 -230 -147 -390 -3 -30 -10 -70 -15 -89 -5 -19 -9 -91 -9 -160
-1 -108 -4 -128 -21 -150 -198 -255 -283 -492 -283 -795 -1 -137 1 -153 27
-253 50 -190 160 -401 343 -661 79 -111 239 -244 399 -332 41 -23 80 -49 87
-59 14 -21 82 -52 196 -92 47 -16 135 -53 196 -83 120 -58 168 -74 315 -105
52 -12 102 -22 111 -25 9 -2 32 -6 50 -9 19 -3 57 -11 84 -18 60 -14 1334 -22
1405 -8 25 4 59 10 75 13 169 28 393 100 538 171 73 36 136 66 140 66 3 0 18
5 34 12 15 6 30 12 33 13 27 7 118 57 175 95 38 26 93 59 120 73 72 36 224
156 278 219 90 105 208 288 281 434 48 95 111 272 122 339 3 22 9 60 14 84 21
112 -8 376 -55 519 -32 95 -116 253 -181 338 l-66 89 0 120 c1 110 -9 190 -48
394 -21 109 -122 273 -232 376 -87 81 -114 101 -389 288 l-86 59 -1 161 c0 89
-1 170 -1 179 -1 9 -14 25 -31 35 -38 22 -38 33 4 60 65 42 79 116 41 222 -15
43 -115 234 -120 229 -10 -10 -73 -127 -111 -206 -49 -99 -66 -182 -45 -220 6
-12 29 -31 50 -42 22 -11 41 -25 44 -32 6 -18 -11 -48 -28 -48 -32 0 -45 -42
-45 -146 0 -55 -2 -103 -5 -106 -3 -3 -72 21 -153 54 -81 32 -165 61 -187 64
-22 3 -65 12 -96 20 -90 22 -206 43 -278 49 -36 3 -84 8 -106 10 -22 2 -86 7
-143 11 -56 3 -108 7 -115 8 -36 5 -37 14 -37 246 l0 229 -40 22 -40 22 28 17
c40 25 82 70 88 96 11 45 -7 110 -63 229 -31 66 -59 124 -63 128 -4 4 -20 -7
-36 -26z m66 -142 c29 -67 31 -104 11 -151 -23 -51 -30 -56 -87 -56 -54 0 -55
1 -56 39 -1 39 88 227 103 218 6 -4 19 -27 29 -50z m-30 -817 l0 -458 -40 0
-40 0 0 425 0 424 32 46 c22 31 34 41 40 32 4 -6 8 -218 8 -469z m1404 367
c20 -42 20 -108 1 -146 -15 -28 -53 -45 -92 -42 -7 0 -22 1 -33 2 -45 3 -34
85 27 195 l37 66 22 -21 c13 -12 30 -36 38 -54z m-2842 38 c30 -34 45 -79 46
-131 0 -45 -4 -57 -30 -82 -23 -23 -39 -30 -69 -30 -50 0 -79 15 -79 40 0 21
100 220 111 220 3 0 13 -8 21 -17z m2790 -370 c2 -10 4 -220 4 -468 l-1 -450
-35 0 -35 0 0 433 c0 356 2 435 13 445 8 6 18 21 23 34 10 27 25 30 31 6z
m-2809 -470 l0 -458 -36 -3 c-31 -3 -37 0 -41 20 -3 13 -4 205 -4 428 l1 405
30 43 c20 27 34 39 40 33 6 -6 10 -191 10 -468z m1308 281 c0 -8 1 -30 1 -49
0 -124 1 -120 -42 -144 -63 -35 -83 -67 -77 -124 3 -27 13 -58 21 -70 9 -12
38 -53 64 -92 54 -80 93 -105 165 -105 62 0 109 22 152 73 65 75 88 214 49
294 -15 30 -27 40 -56 47 l-38 10 0 88 0 88 43 1 c117 2 328 -2 372 -7 119
-13 275 -57 353 -99 26 -14 111 -47 190 -75 79 -27 148 -52 153 -55 5 -4 9
-89 9 -195 l0 -190 -25 -6 c-14 -3 -38 -22 -55 -40 -32 -37 -36 -57 -31 -137
0 -10 13 -30 29 -45 15 -15 45 -54 67 -87 43 -64 72 -84 132 -90 94 -9 167 37
211 133 42 92 40 226 -4 262 -8 7 -28 15 -46 19 l-32 7 -1 122 c0 104 2 122
15 122 32 0 200 -122 292 -212 110 -107 194 -213 235 -296 58 -120 78 -286 58
-497 -4 -38 -8 -86 -10 -106 -5 -59 -27 -89 -172 -225 -199 -189 -236 -219
-353 -282 -305 -165 -540 -257 -781 -306 -172 -35 -260 -40 -729 -40 -354 -1
-478 3 -580 18 -14 2 -45 7 -70 10 -162 24 -272 49 -345 81 -16 7 -52 20 -80
30 -323 113 -521 219 -658 352 -34 32 -89 81 -122 108 -170 139 -196 177 -212
320 -12 105 -5 297 12 325 2 3 6 34 10 69 15 134 73 237 227 402 37 40 149
133 177 149 18 9 19 4 19 -81 l-1 -90 -38 -26 c-78 -51 -91 -114 -44 -205 73
-140 114 -171 225 -171 134 0 201 71 217 229 6 55 -2 130 -16 152 -4 7 -26 19
-47 27 l-39 13 -1 152 0 152 120 58 c104 50 276 115 396 149 19 5 69 19 110
31 68 20 123 29 190 32 14 0 51 7 83 15 131 31 306 36 308 7z m262 -346 c-14
-15 -45 -39 -69 -54 -50 -32 -59 -64 -19 -64 33 0 32 -13 -6 -44 -23 -20 -37
-24 -57 -20 -38 9 -39 11 -44 39 -4 20 -1 25 16 25 18 1 15 6 -19 36 -22 20
-53 43 -70 51 -52 27 -60 66 -21 100 l24 21 6 -21 c3 -12 6 -34 6 -49 0 -21 9
-33 43 -53 52 -30 76 -31 126 -6 49 26 61 41 66 87 2 22 4 44 5 49 1 6 10 -8
20 -30 l18 -40 -25 -27z m1387 -392 c0 -16 -50 -62 -103 -94 -39 -25 -41 -49
-4 -54 16 -2 21 -9 19 -23 -7 -45 -80 -61 -120 -26 -28 23 -28 41 -1 41 17 0
5 16 -56 74 -80 76 -87 94 -47 115 18 10 20 6 26 -33 7 -41 10 -45 57 -66 82
-35 173 -12 184 46 2 10 4 37 4 59 l1 40 20 -33 c11 -18 20 -39 20 -46z
m-2835 34 c8 -16 15 -38 15 -48 0 -19 -46 -65 -104 -105 -34 -24 -33 -36 4
-44 25 -5 29 -9 24 -27 -11 -36 -21 -42 -71 -40 -70 2 -70 2 -75 28 -4 18 0
26 15 30 27 7 16 19 -68 76 -79 53 -84 66 -43 110 24 26 31 18 42 -43 8 -44
34 -64 94 -71 90 -12 160 48 150 130 -2 19 -3 34 -1 34 1 0 9 -13 18 -30z
m3561 -936 c129 -242 142 -287 142 -493 1 -129 -8 -188 -45 -306 -75 -246
-198 -472 -322 -595 -102 -102 -307 -250 -481 -347 -45 -25 -243 -97 -300
-108 -51 -10 -151 -44 -255 -86 -118 -47 -144 -53 -275 -64 -36 -3 -107 -16
-158 -29 -93 -24 -97 -24 -545 -22 -249 1 -461 5 -472 8 -11 4 -42 12 -70 18
-27 6 -59 14 -70 17 -11 3 -54 7 -95 9 -95 4 -133 11 -184 33 -148 65 -230 94
-376 136 -127 36 -186 59 -255 98 -76 43 -214 130 -250 159 -124 97 -198 159
-232 194 -70 73 -208 335 -287 547 -57 151 -70 230 -63 377 4 69 8 134 10 145
3 11 7 37 11 58 4 21 17 57 30 80 97 180 130 237 134 233 2 -3 6 -22 8 -43 4
-48 12 -112 24 -188 5 -33 12 -80 15 -105 3 -25 8 -56 10 -70 6 -34 15 -104
20 -165 3 -27 7 -66 10 -85 2 -19 7 -64 10 -100 15 -169 55 -325 104 -402 72
-113 373 -322 676 -468 105 -51 344 -139 415 -154 14 -3 36 -8 50 -11 14 -3
57 -8 95 -11 91 -6 275 -29 325 -39 14 -3 41 -7 61 -10 19 -3 64 -9 100 -14
67 -9 497 -7 584 4 28 3 73 10 100 15 28 5 75 12 105 15 30 3 66 8 80 10 14 3
53 7 88 10 34 3 100 17 147 30 47 14 124 37 171 50 235 69 451 173 704 341
204 135 270 210 295 334 2 8 8 33 14 55 6 22 13 58 16 80 4 22 8 47 10 55 2 8
7 33 10 55 3 23 8 52 10 65 7 36 25 140 30 175 6 42 14 86 19 114 14 65 46
306 52 384 4 48 8 86 10 84 2 -2 20 -34 40 -73z m-4193 -104 c42 -64 140 -168
212 -225 28 -22 52 -42 55 -45 49 -50 291 -176 430 -223 25 -9 128 -47 229
-86 159 -61 256 -89 369 -107 15 -2 43 -7 62 -11 51 -9 1121 -11 1191 -1 190
26 278 48 454 115 93 36 211 79 261 97 282 102 571 318 687 513 l28 48 -6 -70
c-3 -38 -8 -81 -10 -95 -4 -28 -12 -93 -20 -160 -3 -25 -7 -61 -10 -80 -8 -58
-15 -112 -20 -165 -3 -27 -8 -61 -10 -75 -3 -14 -7 -50 -10 -80 -17 -170 -110
-305 -317 -460 -193 -145 -494 -292 -687 -335 -91 -21 -266 -55 -306 -60 -27
-3 -57 -8 -65 -10 -111 -29 -936 -28 -1103 0 -101 17 -206 36 -227 40 -14 2
-38 7 -55 10 -86 17 -371 127 -532 207 -290 142 -464 299 -531 480 -20 52 -35
126 -48 233 -3 22 -9 65 -14 95 -6 30 -12 72 -15 94 -2 21 -7 55 -9 75 -3 20
-8 59 -11 86 -3 28 -9 91 -15 140 -16 149 -18 146 43 55z"/>
<path d="M1850 3643 c-19 -32 -38 -59 -42 -61 -5 -2 -8 -8 -8 -13 0 -5 -11
-27 -25 -48 -83 -132 -76 -269 14 -295 42 -12 40 -39 -4 -65 -23 -13 -35 -28
-36 -43 0 -13 -2 -185 -2 -383 l-2 -360 -42 -20 c-95 -44 -97 -165 -6 -272 16
-18 39 -48 53 -67 33 -46 55 -55 133 -53 90 3 139 37 186 129 29 58 33 78 35
146 1 89 -16 128 -62 138 -15 3 -33 7 -39 10 -10 3 -13 91 -13 396 l0 393 -36
23 -36 23 44 28 c36 23 46 36 54 72 16 72 0 143 -63 267 -31 61 -60 112 -63
112 -3 0 -21 -26 -40 -57z m74 -111 c31 -50 41 -121 22 -166 -17 -41 -42 -56
-91 -56 -46 0 -75 15 -75 40 0 23 100 220 112 220 4 0 19 -17 32 -38z m-24
-835 l0 -458 -37 3 -38 4 -3 431 -2 431 27 42 c51 77 53 59 53 -453z m122
-491 c-6 -13 -33 -36 -61 -52 -54 -29 -64 -49 -31 -59 33 -10 25 -44 -15 -60
-36 -16 -81 -7 -97 18 -12 18 -10 23 14 34 20 9 16 14 -56 62 -42 29 -80 59
-83 67 -5 14 32 64 48 64 4 0 10 -19 13 -43 6 -42 8 -44 64 -63 31 -11 63 -19
70 -18 6 1 22 2 35 3 42 2 65 35 73 103 l8 63 14 -47 c12 -36 13 -53 4 -72z"/>
<path d="M3126 3587 c-88 -133 -122 -223 -109 -290 3 -17 27 -51 54 -78 31
-31 46 -54 43 -64 -4 -8 -9 -15 -13 -15 -4 0 -22 -14 -39 -31 l-32 -31 0 -367
0 -366 -32 -15 c-57 -27 -75 -70 -70 -163 1 -17 15 -41 33 -60 17 -17 49 -59
71 -93 45 -71 76 -88 149 -87 82 2 138 45 186 142 23 46 27 66 27 147 0 106
-4 114 -69 132 l-41 12 1 392 c0 421 3 394 -49 432 -19 13 -18 15 20 34 32 16
43 30 55 64 17 53 18 50 -13 163 -12 48 -99 225 -109 225 -4 0 -33 -38 -63
-83z m75 -57 c41 -22 67 -115 48 -170 -22 -60 -43 -77 -102 -76 l-52 1 -3 37
c-2 28 8 61 40 128 23 49 44 90 46 90 2 0 12 -5 23 -10z m-3 -864 l-3 -451
-41 -1 -42 -1 1 431 c0 427 0 431 22 461 12 17 25 39 29 49 6 18 8 17 22 -8
12 -24 14 -99 12 -480z m132 -446 c0 -23 -39 -70 -84 -101 -40 -27 -46 -48
-16 -56 25 -7 25 -15 3 -35 -43 -37 -60 -39 -93 -12 -27 24 -29 28 -14 38 15
11 15 14 -2 31 -10 10 -41 33 -69 51 -76 48 -80 56 -49 93 30 36 44 33 44 -12
0 -18 4 -37 8 -43 11 -17 89 -44 127 -44 74 0 101 32 100 118 l0 43 23 -26
c12 -14 22 -35 22 -45z"/>
</g>
</svg>
